<mxfile host="drawio-plugin" modified="2024-03-19T11:07:15.165Z" agent="5.0 (Windows NT 10.0; Win64; x64) AppleWebKit/537.36 (KHTML, like Gecko) Chrome/111.0.0.0 Safari/537.36" etag="Q-bqNbmHcZMeuEpPa2YF" version="20.5.3" type="embed"><diagram id="23iRSUPoRavnBvh4doch" name="Page-1"><mxGraphModel dx="521" dy="875" grid="1" gridSize="10" guides="1" tooltips="1" connect="1" arrows="1" fold="1" page="1" pageScale="1" pageWidth="827" pageHeight="1169" math="0" shadow="0"><root><mxCell id="0"/><mxCell id="1" parent="0"/><mxCell id="2" value="&lt;p style=&quot;margin:0px;margin-top:4px;text-align:center;&quot;&gt;&lt;i&gt;&amp;lt;&amp;lt;Interface&amp;gt;&amp;gt;&lt;/i&gt;&lt;br&gt;&lt;b&gt;RequestHandler&lt;/b&gt;&lt;/p&gt;&lt;p style=&quot;margin:0px;margin-left:4px;&quot;&gt;&lt;br&gt;&lt;/p&gt;&lt;p style=&quot;margin:0px;margin-left:4px;&quot;&gt;+ handle(request: Request)&lt;br&gt;&lt;br&gt;&lt;/p&gt;" style="verticalAlign=top;align=left;overflow=fill;fontSize=12;fontFamily=Helvetica;html=1;" parent="1" vertex="1"><mxGeometry x="500" y="100" width="160" height="70" as="geometry"/></mxCell><mxCell id="3" value="" style="endArrow=none;html=1;rounded=0;entryX=1;entryY=0.5;entryDx=0;entryDy=0;exitX=0;exitY=0.5;exitDx=0;exitDy=0;" parent="1" source="2" target="2" edge="1"><mxGeometry width="50" height="50" relative="1" as="geometry"><mxPoint x="260" y="270" as="sourcePoint"/><mxPoint x="310" y="220" as="targetPoint"/></mxGeometry></mxCell><mxCell id="4" value="BaseHandler" style="swimlane;fontStyle=3;align=center;verticalAlign=top;childLayout=stackLayout;horizontal=1;startSize=26;horizontalStack=0;resizeParent=1;resizeParentMax=0;resizeLast=0;collapsible=1;marginBottom=0;" parent="1" vertex="1"><mxGeometry x="440" y="260" width="280" height="140" as="geometry"/></mxCell><mxCell id="5" value="# next: BaseHanler&#10;# TYPE_OF_REQUEST: Request" style="text;strokeColor=none;fillColor=none;align=left;verticalAlign=top;spacingLeft=4;spacingRight=4;overflow=hidden;rotatable=0;points=[[0,0.5],[1,0.5]];portConstraint=eastwest;" parent="4" vertex="1"><mxGeometry y="26" width="280" height="44" as="geometry"/></mxCell><mxCell id="6" value="" style="line;strokeWidth=1;fillColor=none;align=left;verticalAlign=middle;spacingTop=-1;spacingLeft=3;spacingRight=3;rotatable=0;labelPosition=right;points=[];portConstraint=eastwest;strokeColor=inherit;" parent="4" vertex="1"><mxGeometry y="70" width="280" height="8" as="geometry"/></mxCell><mxCell id="7" value="# BaseHendler(type: Request): BaseHandler&#10;+ setNext(handler: BaseHandler)&#10;+ handel(request: Request)" style="text;strokeColor=none;fillColor=none;align=left;verticalAlign=top;spacingLeft=4;spacingRight=4;overflow=hidden;rotatable=0;points=[[0,0.5],[1,0.5]];portConstraint=eastwest;" parent="4" vertex="1"><mxGeometry y="78" width="280" height="62" as="geometry"/></mxCell><mxCell id="10" value="1" style="endArrow=open;html=1;endSize=12;startArrow=diamondThin;startSize=14;startFill=0;align=left;verticalAlign=bottom;rounded=0;exitX=1;exitY=0.5;exitDx=0;exitDy=0;entryX=1;entryY=0.071;entryDx=0;entryDy=0;entryPerimeter=0;" parent="4" source="5" target="4" edge="1"><mxGeometry x="-1" y="3" relative="1" as="geometry"><mxPoint x="340" y="60" as="sourcePoint"/><mxPoint x="330" y="10" as="targetPoint"/><Array as="points"><mxPoint x="320" y="48"/><mxPoint x="320" y="10"/></Array></mxGeometry></mxCell><mxCell id="8" value="" style="endArrow=block;dashed=1;endFill=0;endSize=12;html=1;rounded=0;exitX=0.5;exitY=0;exitDx=0;exitDy=0;entryX=0.5;entryY=1;entryDx=0;entryDy=0;" parent="1" source="4" target="2" edge="1"><mxGeometry width="160" relative="1" as="geometry"><mxPoint x="310" y="290" as="sourcePoint"/><mxPoint x="500" y="190" as="targetPoint"/></mxGeometry></mxCell><mxCell id="11" value="BuildingSection" style="swimlane;fontStyle=1;align=center;verticalAlign=top;childLayout=stackLayout;horizontal=1;startSize=26;horizontalStack=0;resizeParent=1;resizeParentMax=0;resizeLast=0;collapsible=1;marginBottom=0;textDirection=ltr;fontColor=default;labelBackgroundColor=none;labelBorderColor=none;whiteSpace=wrap;html=1;" parent="1" vertex="1"><mxGeometry x="440" y="460" width="220" height="70" as="geometry"/></mxCell><mxCell id="15" value="&lt;span style=&quot;&quot;&gt;&amp;nbsp;- BuildingSection():&amp;nbsp;BuildingSection&lt;/span&gt;&lt;br style=&quot;padding: 0px; margin: 0px;&quot;&gt;&lt;div style=&quot;&quot;&gt;&lt;span style=&quot;&quot;&gt;&amp;nbsp;+ &lt;i&gt;open&lt;/i&gt;():&amp;nbsp;BuildingSection&lt;/span&gt;&lt;/div&gt;" style="rounded=0;whiteSpace=wrap;html=1;labelBackgroundColor=default;labelBorderColor=none;fontColor=default;align=left;textDirection=ltr;" vertex="1" parent="11"><mxGeometry y="26" width="220" height="44" as="geometry"/></mxCell><mxCell id="16" value="DrivingSection" style="swimlane;fontStyle=1;align=center;verticalAlign=top;childLayout=stackLayout;horizontal=1;startSize=26;horizontalStack=0;resizeParent=1;resizeParentMax=0;resizeLast=0;collapsible=1;marginBottom=0;textDirection=ltr;fontColor=default;labelBackgroundColor=none;labelBorderColor=none;whiteSpace=wrap;html=1;" vertex="1" parent="1"><mxGeometry x="440" y="540" width="220" height="70" as="geometry"/></mxCell><mxCell id="17" value="&lt;span style=&quot;&quot;&gt;&amp;nbsp;-&amp;nbsp;&lt;/span&gt;&lt;span style=&quot;text-align: center;&quot;&gt;DrivingSection&lt;/span&gt;&lt;span style=&quot;&quot;&gt;():&amp;nbsp;&lt;/span&gt;&lt;span style=&quot;text-align: center;&quot;&gt;DrivingSection&lt;/span&gt;&lt;br style=&quot;padding: 0px; margin: 0px;&quot;&gt;&lt;div style=&quot;&quot;&gt;&lt;span style=&quot;&quot;&gt;&amp;nbsp;+ &lt;i&gt;open&lt;/i&gt;(): DrivingSection&lt;/span&gt;&lt;/div&gt;" style="rounded=0;whiteSpace=wrap;html=1;labelBackgroundColor=default;labelBorderColor=none;fontColor=default;align=left;textDirection=ltr;" vertex="1" parent="16"><mxGeometry y="26" width="220" height="44" as="geometry"/></mxCell><mxCell id="18" value="HuntingSection" style="swimlane;fontStyle=1;align=center;verticalAlign=top;childLayout=stackLayout;horizontal=1;startSize=26;horizontalStack=0;resizeParent=1;resizeParentMax=0;resizeLast=0;collapsible=1;marginBottom=0;textDirection=ltr;fontColor=default;labelBackgroundColor=none;labelBorderColor=none;whiteSpace=wrap;html=1;" vertex="1" parent="1"><mxGeometry x="440" y="620" width="220" height="70" as="geometry"/></mxCell><mxCell id="19" value="&lt;span style=&quot;&quot;&gt;&amp;nbsp;-&amp;nbsp;&lt;/span&gt;&lt;span style=&quot;text-align: center;&quot;&gt;HuntingSection&lt;/span&gt;&lt;span style=&quot;&quot;&gt;():&amp;nbsp;&lt;/span&gt;&lt;span style=&quot;text-align: center;&quot;&gt;HuntingSection&lt;/span&gt;&lt;br style=&quot;padding: 0px; margin: 0px;&quot;&gt;&lt;div style=&quot;&quot;&gt;&lt;span style=&quot;&quot;&gt;&amp;nbsp;+ &lt;i&gt;open&lt;/i&gt;():&amp;nbsp;HuntingSection&lt;/span&gt;&lt;/div&gt;" style="rounded=0;whiteSpace=wrap;html=1;labelBackgroundColor=default;labelBorderColor=none;fontColor=default;align=left;textDirection=ltr;" vertex="1" parent="18"><mxGeometry y="26" width="220" height="44" as="geometry"/></mxCell><mxCell id="20" value="PassportSection" style="swimlane;fontStyle=1;align=center;verticalAlign=top;childLayout=stackLayout;horizontal=1;startSize=26;horizontalStack=0;resizeParent=1;resizeParentMax=0;resizeLast=0;collapsible=1;marginBottom=0;textDirection=ltr;fontColor=default;labelBackgroundColor=none;labelBorderColor=none;whiteSpace=wrap;html=1;" vertex="1" parent="1"><mxGeometry x="440" y="700" width="220" height="70" as="geometry"/></mxCell><mxCell id="21" value="&lt;span style=&quot;&quot;&gt;&amp;nbsp;-&amp;nbsp;&lt;/span&gt;&lt;span style=&quot;text-align: center;&quot;&gt;PassportSection&lt;/span&gt;&lt;span style=&quot;&quot;&gt;():&amp;nbsp;&lt;/span&gt;&lt;span style=&quot;text-align: center;&quot;&gt;PassportSection&lt;/span&gt;&lt;br style=&quot;padding: 0px; margin: 0px;&quot;&gt;&lt;div style=&quot;&quot;&gt;&lt;span style=&quot;&quot;&gt;&amp;nbsp;+ &lt;i&gt;open&lt;/i&gt;():&amp;nbsp;PassportSection&lt;/span&gt;&lt;/div&gt;" style="rounded=0;whiteSpace=wrap;html=1;labelBackgroundColor=default;labelBorderColor=none;fontColor=default;align=left;textDirection=ltr;" vertex="1" parent="20"><mxGeometry y="26" width="220" height="44" as="geometry"/></mxCell><mxCell id="22" value="Extends" style="endArrow=block;endSize=16;endFill=0;html=1;rounded=0;fontColor=default;entryX=1;entryY=0.5;entryDx=0;entryDy=0;" edge="1" parent="1" target="7"><mxGeometry width="160" relative="1" as="geometry"><mxPoint x="760" y="720" as="sourcePoint"/><mxPoint x="760" y="380" as="targetPoint"/><Array as="points"><mxPoint x="760" y="370"/></Array></mxGeometry></mxCell><mxCell id="23" value="Extends" style="endArrow=block;endSize=16;endFill=0;html=1;rounded=0;fontColor=default;exitX=1;exitY=0.25;exitDx=0;exitDy=0;" edge="1" parent="1" source="11"><mxGeometry width="160" relative="1" as="geometry"><mxPoint x="580" y="590" as="sourcePoint"/><mxPoint x="760" y="480" as="targetPoint"/></mxGeometry></mxCell><mxCell id="25" value="Extends" style="endArrow=block;endSize=16;endFill=0;html=1;rounded=0;fontColor=default;exitX=1;exitY=0.25;exitDx=0;exitDy=0;" edge="1" parent="1" source="16"><mxGeometry width="160" relative="1" as="geometry"><mxPoint x="680.0000000000001" y="497.5" as="sourcePoint"/><mxPoint x="760" y="560" as="targetPoint"/></mxGeometry></mxCell><mxCell id="26" value="Extends" style="endArrow=block;endSize=16;endFill=0;html=1;rounded=0;fontColor=default;exitX=1;exitY=0.25;exitDx=0;exitDy=0;" edge="1" parent="1" source="18"><mxGeometry width="160" relative="1" as="geometry"><mxPoint x="690.0000000000001" y="507.5" as="sourcePoint"/><mxPoint x="760" y="638" as="targetPoint"/></mxGeometry></mxCell><mxCell id="27" value="Extends" style="endArrow=block;endSize=16;endFill=0;html=1;rounded=0;fontColor=default;exitX=1;exitY=0.25;exitDx=0;exitDy=0;" edge="1" parent="1" source="20"><mxGeometry width="160" relative="1" as="geometry"><mxPoint x="660.0000000000001" y="717.5" as="sourcePoint"/><mxPoint x="760" y="718" as="targetPoint"/></mxGeometry></mxCell><mxCell id="28" value="Cnap" style="swimlane;fontStyle=1;align=center;verticalAlign=top;childLayout=stackLayout;horizontal=1;startSize=26;horizontalStack=0;resizeParent=1;resizeParentMax=0;resizeLast=0;collapsible=1;marginBottom=0;labelBackgroundColor=default;labelBorderColor=none;fontColor=default;html=0;" vertex="1" parent="1"><mxGeometry x="80" y="80" width="290" height="70" as="geometry"/></mxCell><mxCell id="31" value="+ openNewService(handler: BaseHandler)&#10;+ passRequest(request: Request)" style="text;strokeColor=none;fillColor=none;align=left;verticalAlign=top;spacingLeft=4;spacingRight=4;overflow=hidden;rotatable=0;points=[[0,0.5],[1,0.5]];portConstraint=eastwest;labelBackgroundColor=default;labelBorderColor=none;fontColor=default;html=0;" vertex="1" parent="28"><mxGeometry y="26" width="290" height="44" as="geometry"/></mxCell><mxCell id="33" value="&lt;p style=&quot;margin:0px;margin-top:4px;text-align:center;&quot;&gt;&lt;i&gt;&amp;lt;&amp;lt;Enum&amp;gt;&amp;gt;&lt;/i&gt;&lt;br&gt;&lt;b&gt;Request&lt;/b&gt;&lt;/p&gt;&lt;hr size=&quot;1&quot;&gt;&lt;p style=&quot;margin:0px;margin-left:4px;&quot;&gt;+ PASSPORT&lt;br&gt;+ DRIVING_lICENSE&lt;/p&gt;&lt;p style=&quot;margin:0px;margin-left:4px;&quot;&gt;+ BUILDING_LICENSE&lt;/p&gt;&lt;p style=&quot;margin:0px;margin-left:4px;&quot;&gt;+ HUNTING_LICENSE&lt;/p&gt;&lt;p style=&quot;margin:0px;margin-left:4px;&quot;&gt;+ BOIL_THE_BORSCH&lt;/p&gt;&lt;p style=&quot;margin:0px;margin-left:4px;&quot;&gt;+ FRY_POTATO&lt;/p&gt;&lt;p style=&quot;margin:0px;margin-left:4px;&quot;&gt;+ GIVE_GORILKA&lt;/p&gt;&lt;hr&gt;&lt;p style=&quot;margin:0px;margin-left:4px;&quot;&gt;- value: String&lt;/p&gt;&lt;p style=&quot;margin:0px;margin-left:4px;&quot;&gt;- Request(s: String) Request&lt;/p&gt;&lt;p style=&quot;margin:0px;margin-left:4px;&quot;&gt;+ getValue(): String&lt;/p&gt;" style="verticalAlign=top;align=left;overflow=fill;fontSize=12;fontFamily=Helvetica;html=1;labelBackgroundColor=default;labelBorderColor=default;fontColor=default;" vertex="1" parent="1"><mxGeometry x="80" y="230" width="190" height="210" as="geometry"/></mxCell><mxCell id="34" value="Use" style="endArrow=open;endSize=12;dashed=1;html=1;rounded=0;fontColor=default;exitX=0;exitY=0.286;exitDx=0;exitDy=0;exitPerimeter=0;entryX=-0.003;entryY=0.097;entryDx=0;entryDy=0;entryPerimeter=0;" edge="1" parent="1" source="28" target="33"><mxGeometry width="160" relative="1" as="geometry"><mxPoint x="70" y="110" as="sourcePoint"/><mxPoint x="120" y="330" as="targetPoint"/><Array as="points"><mxPoint x="40" y="100"/><mxPoint x="40" y="250"/></Array></mxGeometry></mxCell><mxCell id="36" value="Use" style="endArrow=open;endSize=12;dashed=1;html=1;rounded=0;fontColor=default;exitX=1;exitY=0.25;exitDx=0;exitDy=0;entryX=0;entryY=0.143;entryDx=0;entryDy=0;entryPerimeter=0;" edge="1" parent="1" source="28" target="4"><mxGeometry width="160" relative="1" as="geometry"><mxPoint x="410" y="130" as="sourcePoint"/><mxPoint x="340" y="270" as="targetPoint"/><Array as="points"><mxPoint x="400" y="98"/><mxPoint x="400" y="280"/></Array></mxGeometry></mxCell><mxCell id="37" value="Use" style="endArrow=open;endSize=12;dashed=1;html=1;rounded=0;fontColor=default;exitX=0;exitY=0.5;exitDx=0;exitDy=0;entryX=1.015;entryY=0.372;entryDx=0;entryDy=0;entryPerimeter=0;" edge="1" parent="1" source="5" target="33"><mxGeometry width="160" relative="1" as="geometry"><mxPoint x="290" y="300" as="sourcePoint"/><mxPoint x="280" y="310" as="targetPoint"/></mxGeometry></mxCell></root></mxGraphModel></diagram></mxfile>